<mxfile host="app.diagrams.net" modified="2023-11-23T18:32:31.082Z" agent="Mozilla/5.0 (Windows NT 10.0; Win64; x64) AppleWebKit/537.36 (KHTML, like Gecko) Chrome/117.0.0.0 Safari/537.36" version="22.1.3" etag="i9mm4ux9FGbMZ26wmXG3" type="github">
  <diagram name="PaginÄƒ-1" id="bRxWwBNqt0c-3LS7djKt">
    <mxGraphModel>
      <root>
        <mxCell id="0" />
        <mxCell id="1" parent="0" />
      </root>
    </mxGraphModel>
  </diagram>
</mxfile>
